# xmcd
#
# Track frame offsets:
#	150
#	15771
#	34743
#	52275
#	68474
#	86621
#	106059
#	122118
#	137159
#	153510
#	168225
#	183939
#	196693
#	212518
#
# Disc length: 3060 seconds
#
# Revision: 3
# Processed by: cddbd v1.5.2PL0 Copyright (c) Steve Scherf et al.
# Submitted via: EasyCDDAExtractor 15.3.0.1
#
DISCID=ad0bf20e
DTITLE=Laura Pausini - Hazte Sentir
DYEAR=2018
DGENRE=Latin
TTITLE0=Nadie Ha Dicho
TTITLE1=Nuevo
TTITLE2=La Solucion
TTITLE3=Esta.Alla
TTITLE4=Verdades A Medias
TTITLE5=Dos Ventanas
TTITLE6=Fantastico (Haz Lo Que Eres)
TTITLE7=No River Is Wilder
TTITLE8=Algo Que Te Debo
TTITLE9=Un Proyecto De Vida En Comun
TTITLE10=El Caso Esta Perdido
TTITLE11=Niebla Gris
TTITLE12=Francesca
TTITLE13=El Valor De Seguir Adelante
EXTD=
EXTT0=
EXTT1=
EXTT2=
EXTT3=
EXTT4=
EXTT5=
EXTT6=
EXTT7=
EXTT8=
EXTT9=
EXTT10=
EXTT11=
EXTT12=
EXTT13=
PLAYORDER=
